<?xml version="1.0" encoding="UTF-8"?>
<!DOCTYPE svg PUBLIC "-//W3C//DTD SVG 1.1//EN" "http://www.w3.org/Graphics/SVG/1.1/DTD/svg11.dtd">
<!-- Creator: CorelDRAW -->
<svg xmlns="http://www.w3.org/2000/svg" xml:space="preserve" width="2.844mm" height="2.844mm" version="1.1" style="shape-rendering:geometricPrecision; text-rendering:geometricPrecision; image-rendering:optimizeQuality; fill-rule:evenodd; clip-rule:evenodd"
viewBox="0 0 284.4 284.4"
 xmlns:xlink="http://www.w3.org/1999/xlink"
 xmlns:xodm="http://www.corel.com/coreldraw/odm/2003">
 <defs>
  <style type="text/css">
   <![CDATA[
    .fil0 {fill:#FEFEFE}
   ]]>
  </style>
 </defs>
 <g id="Camada_x0020_1">
  <metadata id="CorelCorpID_0Corel-Layer"/>
  <g id="_2299226224048">
   <path class="fil0" d="M204.39 275.23l-129.15 0c-32.43,0 -65.23,-28.84 -65.23,-60.1l0 -142.4c0,-30.69 32.17,-60.1 63.93,-60.1l133.06 0c39.91,0 65.23,33.23 65.23,74.47l0 113.66c0,42.72 -25.99,74.47 -67.84,74.47zm-206.12 -180.29l0 99.29c0,51.66 27.08,91.46 76.97,91.46l130.46 0c45.51,0 76.97,-37.01 76.97,-83.62l0 -118.89c0,-43.33 -32.24,-81 -74.36,-81l-135.68 0c-48.53,0 -74.36,41.81 -74.36,92.76z"/>
   <path class="fil0" d="M136.56 84.48l6.52 0c30.72,0 57.4,28.05 57.4,58.8 0,32.89 -25.87,60.1 -61.31,60.1 -77.33,0 -74,-118.9 -2.61,-118.9zm1.3 129.35c43.26,0 73.06,-31.91 73.06,-70.55 0,-35.72 -31.49,-69.25 -66.54,-69.25l-9.13 0c-83.12,0 -86.47,139.8 2.61,139.8z"/>
   <path class="fil0" d="M227.41 69.75c20.11,0 6.83,-32.97 -7.86,-18.27 -6.9,6.92 -2.83,18.27 7.86,18.27z"/>
  </g>
 </g>
</svg>
