<?xml version="1.0" encoding="UTF-8"?>
<!DOCTYPE svg PUBLIC "-//W3C//DTD SVG 1.1//EN" "http://www.w3.org/Graphics/SVG/1.1/DTD/svg11.dtd">
<!-- Creator: CorelDRAW -->
<svg xmlns="http://www.w3.org/2000/svg" xml:space="preserve" width="9.046mm" height="2.2518mm" version="1.1" style="shape-rendering:geometricPrecision; text-rendering:geometricPrecision; image-rendering:optimizeQuality; fill-rule:evenodd; clip-rule:evenodd"
viewBox="0 0 904.6 225.18"
 xmlns:xlink="http://www.w3.org/1999/xlink"
 xmlns:xodm="http://www.corel.com/coreldraw/odm/2003">
 <defs>
  <style type="text/css">
   <![CDATA[
    .fil0 {fill:#FEFEFE}
   ]]>
  </style>
 </defs>
 <g id="Camada_x0020_1">
  <metadata id="CorelCorpID_0Corel-Layer"/>
  <g id="_2297901555776">
   <path class="fil0" d="M544.04 117.88c0,8.84 1.36,13.63 4.27,20.45 1.84,4.3 6.34,10.82 9.37,13.85 3.82,3.82 8.76,7.22 13.75,9.48 34.9,15.75 67.75,-11.86 67.75,-40.03 0,-16.63 -3.6,-26.48 -14.78,-37.66 -13.62,-13.62 -34.85,-16.49 -52.44,-8.59 -16.43,7.37 -27.92,23.85 -27.92,42.5z"/>
   <path class="fil0" d="M255.62 115.63c0,16.63 3.6,26.48 14.78,37.66 16.6,16.6 43.71,17.3 63.04,1.95 5.38,-4.28 9.91,-9.84 12.83,-16.39 5.99,-13.5 6.04,-26.31 0.22,-39.92 -4.38,-10.25 -13.02,-18.78 -23.12,-23.33 -17.65,-7.95 -38.87,-5.56 -52.6,7.99 -6.9,6.83 -15.15,18.71 -15.15,32.04z"/>
   <path class="fil0" d="M402.45 115.63c0,16.78 3.03,25.85 14.79,37.66 3.32,3.34 9.18,7.33 13.98,9.24 18.73,7.43 39.25,3.14 52.36,-9.97l9.51 -13.71c9.19,-20.56 2.91,-44.74 -11.97,-56.19 -10.15,-7.8 -16.11,-10.35 -30.2,-11.8 -5.51,-0.56 -13.86,1.67 -19.16,3.67 -15.65,5.88 -29.31,23.74 -29.31,41.1z"/>
  </g>
 </g>
</svg>
