<?xml version="1.0" encoding="UTF-8"?>
<!DOCTYPE svg PUBLIC "-//W3C//DTD SVG 1.1//EN" "http://www.w3.org/Graphics/SVG/1.1/DTD/svg11.dtd">
<!-- Creator: CorelDRAW -->
<svg xmlns="http://www.w3.org/2000/svg" xml:space="preserve" width="59.469mm" height="65.39mm" version="1.1" style="shape-rendering:geometricPrecision; text-rendering:geometricPrecision; image-rendering:optimizeQuality; fill-rule:evenodd; clip-rule:evenodd"
viewBox="0 0 5946.9 6539"
 xmlns:xlink="http://www.w3.org/1999/xlink"
 xmlns:xodm="http://www.corel.com/coreldraw/odm/2003">
 <defs>
  <style type="text/css">
   <![CDATA[
    .str0 {stroke:#FEFEFE;stroke-width:400;stroke-miterlimit:22.9256}
    .fil0 {fill:#FEFEFE}
   ]]>
  </style>
 </defs>
 <g id="Camada_x0020_1">
  <metadata id="CorelCorpID_0Corel-Layer"/>
  <path class="fil0 str0" d="M2351.64 5595.46l1236.45 -4.62c-121.52,661.05 -1088.32,696.31 -1236.45,4.62zm3128.5 -195.59l-5022.18 -1.65c66.17,-638.67 617.72,-508.5 716,-965.67 65.88,-306.4 9.65,-1251.59 13.92,-1628.63 25.16,-2223.21 3517.25,-2208.16 3563.43,-39.51 9.18,430.97 -55.54,1261.67 9.59,1636.38 86.7,498.79 661.24,350.81 719.24,999.08zm-2661.48 -4678.86c0,-179.24 -4.41,-156.82 78.18,-263.3l145.88 3.82c111.84,138.83 82.5,231.41 74.1,487.21l-295.4 -8.78 -2.76 -218.95zm-220.75 235.83c-366.47,132.4 -743.46,147.65 -1140.7,595.93 -877.67,990.48 -228.67,2499.24 -531.76,2949.41 -44.08,65.46 -783.23,484.73 -670.56,967.64 20.67,88.57 5.2,44.78 43.62,95.24 245.98,88.58 1423.26,7.9 1809.3,31.64 138.36,198.74 72.22,278.05 284.36,472.37 321.52,294.55 809.43,304.42 1133.95,19.26 226.28,-198.83 156.48,-278.44 305.63,-491.7 404.31,-24.68 1541.59,55.93 1812.57,-30 61.03,-44.55 54.76,-225.63 17.56,-346.43 -33.08,-107.41 -102.12,-226.55 -149.09,-292.13 -163.01,-227.6 -359.13,-254.33 -480.95,-403.88 -398.39,-489.06 558.05,-2480.33 -1026.77,-3339.62 -282.42,-153.13 -385.85,-126.45 -663.17,-227.73 -57.69,-314.97 41.12,-700.08 -372.13,-699.86 -412.63,0.21 -314.96,384.61 -371.86,699.86z"/>
 </g>
</svg>
