<?xml version="1.0" encoding="UTF-8"?>
<!DOCTYPE svg PUBLIC "-//W3C//DTD SVG 1.1//EN" "http://www.w3.org/Graphics/SVG/1.1/DTD/svg11.dtd">
<!-- Creator: CorelDRAW -->
<svg xmlns="http://www.w3.org/2000/svg" xml:space="preserve" width="20.201mm" height="15.137mm" version="1.1" style="shape-rendering:geometricPrecision; text-rendering:geometricPrecision; image-rendering:optimizeQuality; fill-rule:evenodd; clip-rule:evenodd"
viewBox="0 0 2020.1 1513.7"
 xmlns:xlink="http://www.w3.org/1999/xlink"
 xmlns:xodm="http://www.corel.com/coreldraw/odm/2003">
 <defs>
  <style type="text/css">
   <![CDATA[
    .fil0 {fill:#FEFEFE}
   ]]>
  </style>
 </defs>
 <g id="Camada_x0020_1">
  <metadata id="CorelCorpID_0Corel-Layer"/>
  <path class="fil0" d="M-5.94 624.44c1.87,2.11 6.83,12.47 8.38,14.7l18.69 20.97c10.12,8.52 14.28,9.39 25,16.57 21.98,14.72 34.88,24.32 54.19,39.18l477.38 343.67c80.58,69.79 171.1,124.27 256.32,184.82 0.25,-94.67 -9.03,-258.71 7.49,-341.62 215.74,-66.87 525.85,55.62 693.71,181l131.04 97.92c127.92,90.84 304.8,302.34 347.88,337.21 -34.34,-264.82 -246.24,-710.08 -477.43,-893.6 -473.38,-375.81 -726.31,-105.07 -728.49,-275.3 -1.42,-110.79 -8.41,-235.71 -2.51,-344.83 -45.53,16.28 -297.33,229.62 -359.05,274.52l-100.06 78.07c-42.48,35.14 -316.48,256.2 -352.54,266.72z"/>
 </g>
</svg>
