<?xml version="1.0" encoding="UTF-8"?>
<!DOCTYPE svg PUBLIC "-//W3C//DTD SVG 1.1//EN" "http://www.w3.org/Graphics/SVG/1.1/DTD/svg11.dtd">
<!-- Creator: CorelDRAW -->
<svg xmlns="http://www.w3.org/2000/svg" xml:space="preserve" width="178.103mm" height="178.742mm" version="1.1" style="shape-rendering:geometricPrecision; text-rendering:geometricPrecision; image-rendering:optimizeQuality; fill-rule:evenodd; clip-rule:evenodd"
viewBox="0 0 17810.3 17874.2"
 xmlns:xlink="http://www.w3.org/1999/xlink"
 xmlns:xodm="http://www.corel.com/coreldraw/odm/2003">
 <defs>
  <style type="text/css">
   <![CDATA[
    .fil0 {fill:#FEFEFE}
   ]]>
  </style>
 </defs>
 <g id="Camada_x0020_1">
  <metadata id="CorelCorpID_0Corel-Layer"/>
  <g id="_2299207322464">
   <path class="fil0" d="M1005.27 16872.86c229.45,-1008.9 584.42,-2302.4 907.51,-3320.27 234.13,-737.62 -190.8,-990.56 -394.59,-1563.83 -199.18,-560.3 -403.23,-1004.69 -489.32,-1631.96 -388.52,-2830.8 427.45,-5160.27 1696.92,-6577.99 1074.53,-1200 2658.22,-2668.78 5644.02,-2918.57 755.23,-63.18 1316.04,3.28 1963.91,96.74 648.54,93.56 1109.62,307.85 1657.81,485.01 973.94,314.74 1966.23,1132.11 2592.5,1720.44 1362.52,1279.99 2435.23,3331.57 2371.23,6110.28 -60.1,2609.65 -1503.67,4561.26 -2855.49,5739.97 -2098.15,1829.47 -5194.82,2484.02 -8137.22,1324.84 -672.65,-264.99 -856.73,-572.62 -1560.43,-341.48 -330.79,108.66 -3247.48,884.2 -3396.85,876.82zm7548.82 -16860.38c-5201.71,224.11 -9189.01,4872 -8381.67,10247.79 101.81,677.95 283.89,1285.09 497.95,1865.94 380.16,1031.56 585.01,486 294.68,1714.6 -101.35,428.88 -1010.41,3492.88 -965.18,3748 108.24,610.6 1336.66,79.38 1736.65,-17.56l2844.11 -747.57c378.03,-119.89 483.38,35.86 857.05,212.13 494.17,233.11 1269.89,450.03 1832.1,563.51 2927.68,590.93 5785.72,-545.85 7285.69,-1849.31 598.75,-520.32 1778.28,-1657.27 2159.06,-2601.7 232.46,-576.56 506.47,-946.45 710.37,-1684.49 574.3,-2078.74 516.14,-3856.07 -258.47,-5922.08 -465.73,-1242.19 -1199.72,-2075.38 -1899.15,-2878.28 -492.41,-565.26 -1947.47,-1627.17 -2853.06,-1963.16 -1268.14,-470.52 -2397.91,-750.82 -3860.13,-687.82z"/>
   <path class="fil0" d="M12787.42 11123.2c11.2,155.4 -24.57,341.68 -55.54,476.44 -33.06,143.86 -101.23,252.64 -204.51,358.53 -185.19,189.84 -407.99,333.85 -656.4,435.01 -777.58,316.65 -1551.93,20.44 -2264.14,-272.79 -56.74,-23.37 -189.07,-56.87 -208.65,-64.47 -376.03,-145.9 -904.55,-488.97 -1237.55,-716.61l-709.5 -548.48c-5.06,-4.05 -13.07,-10.89 -17.96,-15.17 -7.32,-6.42 -26.5,-26.79 -33.52,-33.74 -58.47,-57.9 -60.22,-61.35 -127.13,-116.48l-1059.93 -1173.51c-370.23,-561.33 -1080.04,-1397.53 -1144.83,-2210.54 -23.05,-289.21 -27.06,-757.05 75.95,-961.96 158.16,-314.62 265.96,-452.41 454.4,-650.62 312.27,-328.46 268.46,-237.36 785.51,-237.36l256.74 603.12c339.07,1052.19 605.69,979.04 239.05,1442.91l-161.64 191.84c-117.53,138.49 -300.01,313.14 -325.2,548.95 -45.76,428.33 632.47,1284.05 891.74,1552.21 122.22,126.42 222.45,273.17 415.59,429.73 289.73,234.84 605.72,520.87 953.68,729.5l209.5 100.13c176.79,73.73 163.88,110.23 314.04,181.48 1151.59,546.43 1220.72,169.64 2004.28,-824.23l799.96 381.72c134.33,60.93 287.74,135.18 413.53,196.77l392.53 197.62zm847.29 89.08c0,-785.61 -198.37,-654.45 -777.89,-995.35 -2261.05,-1330.07 -2161.73,-481.84 -2945.42,342.4 -1356.91,-631.96 -1861.12,-1032.73 -2626.69,-2275.1 942.05,-1030.32 703.52,-1127.19 186.3,-2461.28 -160.45,-413.84 -337.53,-940.3 -645.35,-1147.97 -376,-253.65 -1212.37,-121.07 -1481.37,31.43 -630.9,357.69 -1143.35,1443.16 -1140.41,2281.59 2.83,804.5 485.53,1980.94 983.35,2462.95 185.85,179.95 197.22,353.97 370.61,516.07 199.98,186.95 227.46,297.83 411.92,509.35 791.25,907.34 1886.28,1840.29 3091.01,2336.62 825.12,339.93 1968.27,779.06 2948.71,429.59 786.54,-280.37 1625.23,-841.29 1625.23,-2030.3z"/>
  </g>
 </g>
</svg>
